<svg height="483pt" viewBox="-31 0 483 483.99799" width="483pt" xmlns="http://www.w3.org/2000/svg"><path d="m59.636719 449.808594c-1.230469 0-2.445313-.054688-3.65625-.136719l-4.894531.007813c-25.6875 0-46.589844-25.570313-46.589844-57.003907 0-31.4375 20.902344-57.007812 46.589844-57.007812h282.074218c6.980469 0 12.664063 6.175781 12.664063 13.765625s-5.683594 13.761718-12.664063 13.761718h-279.1875c-13.316406 0-24.144531 13.253907-24.144531 29.542969 0 16.292969 10.828125 29.546875 24.144531 29.546875h279.1875c6.980469 0 12.664063 6.171875 12.664063 13.761719s-5.683594 13.765625-12.664063 13.765625h-273.523437zm0 0" fill="#4671c6"/><path d="m53.972656 363.195312c-13.3125 0-24.144531 13.253907-24.144531 29.542969 0 16.289063 10.832031 29.542969 24.144531 29.542969h270.695313v-59.085938zm0 0" fill="#e0ebfc"/><path d="m336.699219 4.101562v-.101562h-265.101563v331.667969h261.5625c6.8125 0 12.371094 5.882812 12.640625 13.214843h.023438v-334.738281c0-5.253906-4.007813-9.523437-9.125-10.042969zm0 0" fill="#a4c9ff"/><path d="m333.160156 363.195312h-8.492187v59.085938h8.492187c6.835938 0 12.410156 5.921875 12.644532 13.285156h.019531v-86.136718c0 7.589843-5.679688 13.765624-12.664063 13.765624zm0 0" fill="#a4c9ff"/><path d="m345.800781 348.882812c.003907.183594.023438.363282.023438.550782v-.550782zm0 0" fill="#a4c9ff"/><path d="m333.160156 453.808594h-273.523437c-1.152344 0-2.394531-.042969-3.785157-.136719l-4.757812.007813c-27.902344 0-50.59375-27.367188-50.59375-61.003907 0-33.640625 22.691406-61.007812 50.589844-61.007812h282.070312c9.191406 0 16.664063 7.96875 16.664063 17.761719 0 9.796874-7.472657 17.765624-16.664063 17.765624h-279.1875c-11.109375 0-20.144531 11.457032-20.144531 25.539063 0 14.085937 9.039063 25.546875 20.144531 25.546875h279.1875c9.191406 0 16.664063 7.964844 16.664063 17.761719 0 9.800781-7.476563 17.765625-16.664063 17.765625zm-277.179687-8.136719c.089843 0 .183593.003906.273437.011719 1.117188.074218 2.242188.125 3.378906.125h273.523438c4.777344 0 8.664062-4.378906 8.664062-9.761719 0-5.386719-3.886718-9.765625-8.664062-9.765625h-279.183594c-15.519531 0-28.144531-15.046875-28.144531-33.542969 0-18.496093 12.625-33.542969 28.144531-33.542969h279.1875c4.777344 0 8.664063-4.378906 8.664063-9.761718 0-5.382813-3.886719-9.761719-8.664063-9.761719h-282.070312c-23.484375 0-42.589844 23.777344-42.589844 53.003906 0 29.226563 19.105469 53.007813 42.589844 53.007813l4.886718-.007813c0-.003906.003907-.003906.003907-.003906zm0 0" fill="#3762cc"/><path d="m324.664062 426.28125h-270.691406c-15.519531 0-28.144531-15.046875-28.144531-33.542969 0-18.496093 12.625-33.542969 28.144531-33.542969h270.695313c2.207031 0 4 1.792969 4 4v59.085938c-.003907 2.210938-1.792969 4-4.003907 4zm-270.691406-59.085938c-11.109375 0-20.144531 11.457032-20.144531 25.542969 0 14.082031 9.039063 25.542969 20.144531 25.542969h266.695313v-51.085938zm0 0" fill="#3762cc"/><path d="m4.5 392.738281c0-.023437-.003906-.042969-.003906-.0625zm0 0" fill="#6bdddd"/><path d="m45.59375 4c-22.695312 0-41.09375 18.398438-41.09375 41.09375v347.582031c0-29.15625 17.984375-53.257812 41.09375-56.597656 1.804688-.261719 3.636719-.410156 5.496094-.410156h20.507812v-331.667969zm0 0" fill="#6bdddd"/><path d="m333.160156 453.808594h-273.523437c-1.152344 0-2.394531-.042969-3.785157-.136719l-4.757812.007813c-27.902344 0-50.59375-27.367188-50.59375-61.003907 0-33.640625 22.691406-61.007812 50.589844-61.007812h282.070312c9.191406 0 16.664063 7.96875 16.664063 17.761719 0 9.796874-7.472657 17.765624-16.664063 17.765624h-4.492187v51.085938h4.492187c9.191406 0 16.664063 7.964844 16.664063 17.761719 0 9.800781-7.476563 17.765625-16.664063 17.765625zm-277.179687-8.136719c.089843 0 .183593.003906.273437.011719 1.117188.074218 2.242188.125 3.378906.125h273.523438c4.777344 0 8.664062-4.378906 8.664062-9.761719 0-5.386719-3.886718-9.765625-8.664062-9.765625h-8.492188c-2.210937 0-4-1.792969-4-4v-59.085938c0-2.207031 1.789063-4 4-4h8.492188c4.777344 0 8.664062-4.378906 8.664062-9.761718 0-5.382813-3.886718-9.761719-8.664062-9.761719h-282.066406c-23.484375 0-42.589844 23.777344-42.589844 53.003906 0 29.226563 19.105469 53.007813 42.589844 53.007813l4.886718-.007813c0-.003906.003907-.003906.003907-.003906zm0 0" fill="#3762cc"/><path d="m71.597656 386.035156v94.722656c0 2.714844 3.375 3.96875 5.148438 1.917969l19.808594-22.894531c1.144531-1.328125 3.199218-1.355469 4.378906-.058594l21.257812 23.3125c1.804688 1.980469 5.097656.703125 5.097656-1.976562v-95.027344h-55.691406zm0 0" fill="#f9a7a7"/><g fill="#3762cc"><path d="m345.824219 439.570312c-2.160157 0-3.953125-1.714843-4.019531-3.875-.167969-5.1875-4.042969-9.414062-8.644532-9.414062h-8.496094c-2.207031 0-4-1.792969-4-4v-59.085938c0-2.207031 1.792969-4 4-4h8.496094c4.777344 0 8.664063-4.378906 8.664063-9.761718 0-2.210938 1.789062-4 4-4 2.207031 0 4 1.789062 4 4v86.136718c0 2.207032-1.792969 4-4 4zm-17.160157-21.289062h4.496094c3.175782 0 6.140625.933594 8.664063 2.566406v-56.246094c-2.527344 1.644532-5.492188 2.59375-8.664063 2.59375h-4.496094zm0 0"/><path d="m345.824219 353.429688c-2.210938 0-4-1.792969-4-4-.003907-.027344-.023438-.351563-.023438-.375-.046875-1.089844.355469-2.152344 1.109375-2.9375.753906-.789063 1.796875-1.234376 2.886719-1.234376h.027344c2.207031 0 4 1.792969 4 4v.546876c0 2.210937-1.792969 4-4 4zm-.023438-4.546876h.019531zm0 0"/><path d="m4.5 396.707031c-1.851562 0-3.414062-1.234375-3.867188-2.941406-.082031-.3125-.128906-.636719-.132812-.972656v-.058594l8-.058594v.046875.007813.03125c-.015625.675781-.199219 1.316406-.511719 1.875 0 0-.003906.003906-.003906.003906v.003906.003907s-.003906 0-.003906.003906v.003906s0 0-.003907.003906c-.625 1.101563-1.75 1.878906-3.0625 2.015625 0 0-.003906 0-.007812 0 0 0 0 0-.003906 0 0 0-.003906 0-.007813 0h-.003906c-.003906 0-.003906 0-.003906 0s-.003907 0-.007813 0c-.007812 0-.007812.003907-.007812 0-.003906 0-.003906 0-.007813 0-.121093.023438-.242187.03125-.363281.03125zm0 0"/><path d="m4.5 396.675781c-2.210938 0-4-1.792969-4-4v-347.582031c0-24.867188 20.226562-45.09375 45.09375-45.09375h26.003906c2.210938 0 4 1.792969 4 4v331.667969c0 2.207031-1.789062 4-4 4h-20.507812c-1.59375 0-3.207032.121093-4.925782.371093-21.472656 3.101563-37.664062 25.730469-37.664062 52.636719 0 2.207031-1.792969 4-4 4zm41.09375-388.675781c-20.453125 0-37.09375 16.640625-37.09375 37.09375v314.664062c7.914062-14.867187 21.058594-25.402343 36.519531-27.636718 2.074219-.300782 4.117188-.453125 6.070313-.453125h16.507812v-323.667969zm0 0"/><path d="m345.824219 352.882812c-2.152344 0-3.945313-1.703124-4.023438-3.851562-.195312-5.25-3.988281-9.363281-8.640625-9.363281h-261.5625c-2.207031 0-4-1.792969-4-4v-331.667969c0-2.207031 1.792969-4 4-4h265.101563c.503906 0 .988281.09375 1.433593.265625 6.734376 1.171875 11.691407 6.96875 11.691407 13.878906v334.738281c0 2.210938-1.792969 4-4 4zm0-4h.019531zm-270.226563-17.214843h257.5625c3.175782 0 6.140625.9375 8.664063 2.570312v-320.09375c0-3.136719-2.375-5.742187-5.527344-6.0625-.167969-.015625-.335937-.042969-.496094-.082031h-260.203125zm0 0"/></g><path d="m409.417969 366.726562c-9.0625 9.058594-23.75 9.058594-32.808594 0l-77.199219-77.203124c-2.898437-2.898438-2.898437-7.597657 0-10.496094l22.308594-22.308594c2.894531-2.898438 7.597656-2.898438 10.496094 0l77.203125 77.203125c9.058593 9.054687 9.058593 23.742187 0 32.804687zm0 0" fill="#6bdddd"/><path d="m321.46875 256.964844-24.796875-24.796875c-3.121094 4.03125-6.492187 7.925781-10.1875 11.621093-3.699219 3.695313-7.59375 7.070313-11.625 10.1875l24.800781 24.800782zm0 0" fill="#ffea92"/><path d="m286.097656 70.910156c-47.769531-47.769531-125.324218-47.945312-172.882812-.386718-47.554688 47.554687-47.382813 125.109374.386718 172.878906 47.769532 47.773437 125.324219 47.945312 172.878907.386718 47.558593-47.554687 47.382812-125.109374-.382813-172.878906zm-23.523437 148.972656c-16.652344 16.652344-38.871094 25.792969-62.558594 25.734376-23.671875-.058594-45.910156-9.292969-62.621094-26.003907-34.585937-34.585937-34.707031-90.742187-.273437-125.179687 16.652344-16.652344 38.871094-25.792969 62.558594-25.734375 23.671874.058593 45.914062 9.292969 62.625 26.003906 16.710937 16.714844 25.949218 38.960937 26 62.640625.054687 23.679688-9.082032 45.890625-25.730469 62.539062zm0 0" fill="#f9a7a7"/><path d="m393.011719 377.507812c-6.960938 0-13.925781-2.652343-19.230469-7.953124l-77.199219-77.203126c-2.160156-2.15625-3.347656-5.027343-3.347656-8.078124 0-3.050782 1.1875-5.917969 3.347656-8.078126l22.308594-22.308593c4.453125-4.453125 11.695313-4.453125 16.152344 0l77.203125 77.207031c10.601562 10.601562 10.601562 27.855469 0 38.460938-5.304688 5.300781-12.265625 7.953124-19.234375 7.953124zm-66.042969-118.964843c-.878906 0-1.753906.335937-2.421875 1l-22.308594 22.308593c-.644531.648438-1.003906 1.507813-1.003906 2.421876 0 .914062.359375 1.773437 1.003906 2.417968l77.203125 77.203125c3.625 3.628907 8.449219 5.625 13.574219 5.625 5.128906 0 9.953125-2 13.574219-5.625 7.484375-7.484375 7.484375-19.664062 0-27.148437l-77.199219-77.203125c-.667969-.664063-1.546875-1-2.421875-1zm82.449219 108.183593h.019531zm0 0" fill="#3762cc"/><path d="m299.65625 282.777344c-1.058594 0-2.078125-.421875-2.828125-1.171875l-24.796875-24.800781c-.808594-.8125-1.234375-1.933594-1.164062-3.082032.074218-1.148437.636718-2.207031 1.542968-2.910156 4.140625-3.203125 7.816406-6.425781 11.242188-9.851562 3.382812-3.386719 6.699218-7.167969 9.851562-11.242188.707032-.90625 1.765625-1.46875 2.910156-1.542969 1.171876-.066406 2.273438.351563 3.082032 1.164063l24.800781 24.796875c.75.75 1.171875 1.769531 1.171875 2.828125 0 1.0625-.421875 2.078125-1.171875 2.828125l-21.8125 21.8125c-.75.75-1.765625 1.171875-2.828125 1.171875zm-18.808594-28.472656 18.808594 18.8125 16.15625-16.152344-18.8125-18.8125c-2.496094 3.007812-5.070312 5.84375-7.691406 8.464844-2.613282 2.617187-5.449219 5.191406-8.460938 7.6875zm0 0" fill="#3762cc"/><path d="m200.398438 283.34375c-32.421876 0-64.886719-12.375-89.625-37.113281-23.859376-23.855469-37.039063-55.582031-37.113282-89.339844-.078125-33.761719 12.96875-65.4375 36.726563-89.195313 23.757812-23.757812 55.46875-36.824218 89.195312-36.726562 33.753907.074219 65.484375 13.253906 89.339844 37.113281 49.328125 49.328125 49.503906 129.421875.386719 178.535157-24.484375 24.488281-56.675782 36.722656-88.910156 36.726562zm-1.105469-244.375c-31.515625 0-61.070313 12.203125-83.25 34.382812-22.242188 22.242188-34.453125 51.90625-34.382813 83.523438.070313 31.625 12.417969 61.351562 34.769532 83.703125 22.351562 22.351563 52.078124 34.699219 83.703124 34.769531h.269532c31.515625 0 61.074218-12.207031 83.25-34.382812 45.996094-46 45.824218-121.015625-.386719-167.226563-22.351563-22.347656-52.074219-34.699219-83.699219-34.769531-.089844 0-.179687 0-.273437 0zm.945312 210.644531c-.078125 0-.15625 0-.234375 0-24.734375-.058593-47.976562-9.710937-65.4375-27.171875-17.480468-17.480468-27.136718-40.730468-27.191406-65.46875-.054688-24.742187 9.507812-47.957031 26.921875-65.371094 17.351563-17.355468 40.488281-26.90625 65.164063-26.90625h.230468c24.734375.0625 47.976563 9.710938 65.441406 27.175782 17.46875 17.46875 27.121094 40.714844 27.175782 65.457031.054687 24.757813-9.5 47.972656-26.90625 65.378906-17.355469 17.355469-40.492188 26.90625-65.164063 26.90625zm-.777343-176.914062c-22.539063 0-43.664063 8.714843-59.507813 24.5625-15.898437 15.894531-24.628906 37.097656-24.578125 59.695312.046875 22.605469 8.875 43.851563 24.847656 59.828125 15.957032 15.957032 37.195313 24.773438 59.800782 24.828125h.214843c22.535157 0 43.660157-8.71875 59.507813-24.5625 15.890625-15.886719 24.613281-37.089843 24.558594-59.703125-.050782-22.613281-8.871094-43.859375-24.828126-59.820312-15.960937-15.957032-37.203124-24.777344-59.804687-24.832032-.070313.003907-.144531.003907-.210937.003907zm0 0" fill="#3762cc"/><path d="m207.277344 89.074219c25.609375 0 42.996094 15.097656 42.996094 39.9375 0 24.414062-15.6875 36.429687-37.683594 38.472656-4.035156.375-7.199219 3.621094-7.40625 7.664063v.027343c-.21875 4.324219-3.792969 7.71875-8.125 7.71875h-3.304688c-4.394531 0-7.992187-3.484375-8.132812-7.871093l-.503906-15.824219c-.109376-3.445313 2.65625-6.304688 6.109374-6.304688 21.59375 0 38.214844-3.820312 38.214844-23.882812 0-13.378907-8.214844-21.59375-21.972656-21.59375-11.34375 0-19.210938 5.34375-21.488281 14.910156-.859375 3.605469-4.140625 6.109375-7.847657 6.109375h-4.28125c-5.277343 0-9.113281-4.933594-7.933593-10.082031 4.050781-17.625 19.34375-29.28125 41.359375-29.28125zm-12.226563 136.050781c-10.472656 0-17.875-10.925781-11.703125-22.28125.574219-1.050781 1.398438-1.945312 2.398438-2.605469 11.292968-7.488281 23.0625.070313 23.0625 10.941407 0 7.832031-6.117188 13.945312-13.757813 13.945312zm0 0" fill="#ffea92"/></svg>