<?xml version="1.0" ?><!DOCTYPE svg  PUBLIC '-//W3C//DTD SVG 1.1//EN'  'http://www.w3.org/Graphics/SVG/1.1/DTD/svg11.dtd'><svg height="512px" style="enable-background:new 0 0 512 512;" version="1.1" viewBox="0 0 512 512" width="512px" xml:space="preserve" xmlns="http://www.w3.org/2000/svg" xmlns:xlink="http://www.w3.org/1999/xlink"><g id="Girl_x2C__lady_x2C__user_x2C__woman"><g><path d="M256.028,495.432c131.841,0,239.403-107.563,239.403-239.459    c0-131.894-107.563-239.404-239.403-239.404c-131.894,0-239.46,107.511-239.46,239.404    C16.568,387.869,124.135,495.432,256.028,495.432L256.028,495.432z" style="fill-rule:evenodd;clip-rule:evenodd;fill:#1C1C1C;"/><path d="M255.916,495.432    C123.743,495.379,16.568,388.203,16.568,255.973c0-18.778,2.187-37.109,6.275-54.653l212.332-97.813l20.853,391.926H255.916z" style="fill-rule:evenodd;clip-rule:evenodd;fill:#0A0A0A;"/><path d="M249.414,287.363c13.283,0.223,26.512,0.504,39.74,0.727    c-1.064,20.631,4.318,37.67,18.555,48.262c-9.584,17.883-19.619,35.877-28.531,51.74c-14.123-17.545-28.697-35.932-42.993-53.477    C246.441,325.029,250.48,308.887,249.414,287.363L249.414,287.363z" style="fill-rule:evenodd;clip-rule:evenodd;fill:#CACACA;"/><path d="M178.841,348.795c12.782-4.313,23.879-8.35,34.922-9.078    c0,17.656-0.053,35.369-0.109,53.082c6.335-9.865,13.619-17.881,23.653-24.383c11.601,27.857,28.979,50.449,46.188,73.037    c12.053-23.262,22.646-49.943,31.391-76.68c8.688,7.174,15.75,15.861,21.357,26.287c-1.738-17.375-2.971-33.855-4.709-51.23    c17.936,4.93,35.258,11.547,45.176,29.875c9.139,23.934,7.795,56.557,7.852,88.342c-11.322,7.176-23.266,13.453-35.766,18.723    c-0.949-3.869-2.297-7.512-4.818-10.035c-3.252,2.354-5.607,8.184-7.178,14.688c-6.221,2.24-12.553,4.201-19,5.939l-109.192,0.113    c-6.782-24.215-15.526-46.525-29.652-64.07c-15.357,12.836-28.866,26.57-40.919,40.975c-12.162-6.893-23.656-14.797-34.361-23.652    C134.505,391.848,163.205,353.785,178.841,348.795L178.841,348.795z" style="fill-rule:evenodd;clip-rule:evenodd;fill:#333333;"/><path d="M178.841,348.795c12.782-4.313,23.879-8.35,34.922-9.078    c0,17.656-0.053,35.369-0.109,53.082c6.335-9.865,13.619-17.881,23.653-24.383c11.601,27.857,28.979,50.449,46.188,73.037    c12.053-23.262,22.646-49.943,31.391-76.68c8.688,7.174,15.75,15.861,21.357,26.287c-1.738-17.375-2.971-33.855-4.709-51.23    c17.936,4.93,35.258,11.547,45.176,29.875c9.139,23.934,7.795,56.557,7.852,88.342c-11.322,7.176-23.266,13.453-35.766,18.723    c-0.949-3.869-2.297-7.512-4.818-10.035c-3.252,2.354-5.607,8.184-7.178,14.688c-6.221,2.24-12.553,4.201-19,5.939l-108.127,0.113    c-0.392-0.113-0.73-0.225-1.122-0.338c-6.782-24.045-15.526-46.301-29.596-63.732c-13.228,11.1-25.057,22.758-35.762,34.979    c-12.165-7.678-23.597-16.426-34.136-26.121C137.866,387.475,164.157,353.508,178.841,348.795L178.841,348.795z" style="fill-rule:evenodd;clip-rule:evenodd;fill:#333333;"/><path d="M179.01,423.348c-11.544,9.979-22.813,20.18-32.679,31.504    c11.21-19.004,25.282-38.174,41.2-57.848c9.023,18.105,20.348,41.311,38.115,47.422c33.744,7.791,69.732,8.967,107.512,4.762    c38.676-10.648,24.494-47.252,19.393-74.941c6.953,19.449,17.154,52.746,13.006,64.797c-5.102,10.371-11.826,19.844-21.637,27.58    c-2.299,1.904-3.922,7.678-5.27,14.125c-25.727,9.475-53.586,14.684-82.622,14.684c-16.983,0-33.465-1.791-49.439-5.098    C200.198,467.574,191.454,439.826,179.01,423.348L179.01,423.348z" style="fill-rule:evenodd;clip-rule:evenodd;fill:#272727;"/><path d="M215.728,189.605c18.55-17.378,48.431-23.208,66.87-45.291    c-8.352,11.714-20.627,21.243-34.979,29.652c22.76-5.047,40.752-18.387,56.727-35.035c22.928,27.466,36.715,57.569,30.549,93.219    c-8.35,25.223-22.027,46.355-46.691,59.078c-12.443,10.709-25.057,10.482-37.893-1.791    c-19.057-12.109-34.025-29.375-41.087-56.501c-4.148-7.961-5.101-15.304-4.935-22.479c0.448,3.139,0.956,6.278,1.403,9.471    c0.783-10.817,1.57-21.579,4.427-31.332c0.17,3.644,0.393,7.23,0.562,10.818c3.308-20.965,10.874-28.588,17.603-39.296    C222.676,169.763,216.063,179.515,215.728,189.605L215.728,189.605z" style="fill-rule:evenodd;clip-rule:evenodd;fill:#D6D6D6;"/><path d="M197.341,135.514c13.004-23.208,35.37-35.652,66.534-38.062    c29.375-1.457,56.111,2.805,75.227,24.665c18.889,24.775,22.027,55.549,19.002,89.854c-1.404,20.965-10.035,38.396-24.777,52.8    c-4.707,22.871,2.467,39.631,35.65,43.162c-1.512,8.352-5.551,14.352-11.828,18.273c3.141,3.867,6.277,7.736,9.42,11.66    c-1.404,0.111-2.861,0.223-4.318,0.336c-6.164-9.418-34.752-9.979-56.557-19.844c-4.822-0.785-9.025-1.234-13.174-1.457    c-2.748-7.23-4.373-17.713-4.26-25.73c17.262-11.883,35.145-23.148,46.355-59.247c5.158-27.914-4.146-63.676-30.156-93.497    c-14.688,14.63-30.045,28.925-56.84,35.539c14.127-7.848,26.178-17.714,35.596-30.326c-21.807,23.712-46.131,27.131-67.487,45.965    c0.109-10.817,8.574-22.478,15.413-33.353c-10.761,13.453-18.778,27.522-20.46,43.162c-0.784-4.317-0.728-8.632-0.448-12.948    c-2.635,11.153-3.7,22.309-4.54,33.462c-0.169-3.753-0.673-7.174-1.347-10.367c-0.392,7.679,0.729,15.471,4.878,23.375    c6.951,24.214,20.57,43.606,40.974,56.218c-0.222,9.195-0.504,19.957-3.474,27.691c-5.604,1.291-10.817,1.457-15.526,4.992    c-14.687,5.322-29.43,10.816-44.114,16.195c-3.308-0.109-6.67-0.221-9.978-0.334c-1.065-17.826,5.718-26.4,15.078-31.053    c-6.951-4.652-10.764-11.996-11.269-20.18c17.096-0.395,25.505-9.139,22.199-29.205c-10.426-15.08-16.256-31.838-17.547-50.168    C182.262,181.758,184.562,157.879,197.341,135.514L197.341,135.514z" style="fill-rule:evenodd;clip-rule:evenodd;fill:#545454;"/><path d="M246.777,255.859c13.734-0.614,15.359-5.436,22.535-1.231    c5.494-3.756,12.834,1.4,22.199,1.288C282.094,276.881,255.299,277.217,246.777,255.859L246.777,255.859z" style="fill-rule:evenodd;clip-rule:evenodd;fill:#A7A7A7;"/><path d="M246.777,255.859c15.025,3.309,29.934,3.309,44.734,0.057    C277.441,263.988,259.445,263.707,246.777,255.859L246.777,255.859z" style="fill-rule:evenodd;clip-rule:evenodd;fill:#FEFEFE;"/><path d="M264.998,261.689c5.83-0.057,11.209,0.281,15.861,1.344    c-7.457,3.869-18.33,3.813-25.617-0.447C258.494,262.307,261.746,261.971,264.998,261.689L264.998,261.689z" style="fill-rule:evenodd;clip-rule:evenodd;fill:#CCCCCC;"/><path d="M273.572,261.633c7.008-0.953,13.117-2.748,17.939-5.717    c-2.918,2.914-6.504,5.27-10.932,7.064C278.225,262.531,275.871,262.084,273.572,261.633L273.572,261.633z" style="fill-rule:evenodd;clip-rule:evenodd;fill:#545454;"/><path d="M264.324,261.633c-7.064-0.953-12.557-2.748-17.375-5.717    c2.914,2.914,4.37,4.709,8.631,6.67C258.102,262.363,261.971,261.914,264.324,261.633L264.324,261.633z" style="fill-rule:evenodd;clip-rule:evenodd;fill:#545454;"/><path d="M272.902,215.725c1.063,8.578,4.93,13.96,4.648,16.426    c-0.727,2.859-3.922,7.679-8.797,10.538C277.328,234.56,273.852,226.545,272.902,215.725L272.902,215.725z" style="fill-rule:evenodd;clip-rule:evenodd;fill:#BEBEBE;"/><path d="M220.098,207.823c13.565-10.987,26.569-10.091,38.787,0    C246.667,217.911,233.663,218.754,220.098,207.823L220.098,207.823z" style="fill-rule:evenodd;clip-rule:evenodd;fill:#FFFFFF;"/><path d="M245.828,200.593c1.344,1.513,2.127,3.475,2.127,5.604    c0,4.709-3.754,8.462-8.463,8.462c-4.708,0-8.464-3.753-8.464-8.462c0-2.13,0.783-4.092,2.074-5.548    C237.419,199.693,241.68,199.693,245.828,200.593L245.828,200.593z" style="fill-rule:evenodd;clip-rule:evenodd;fill:#A9A9A9;"/><path d="M239.492,211.802c3.084,0,5.549-2.521,5.549-5.548    c0-3.083-2.465-5.552-5.549-5.552c-3.085,0-5.55,2.469-5.55,5.552C233.942,209.28,236.407,211.802,239.492,211.802    L239.492,211.802z" style="fill-rule:evenodd;clip-rule:evenodd;fill:#505050;"/><path d="M241.732,204.907c0.896,0,1.684-0.728,1.684-1.683    c0-0.952-0.787-1.68-1.684-1.68c-0.949,0-1.735,0.728-1.735,1.68C239.997,204.18,240.783,204.907,241.732,204.907L241.732,204.907    z" style="fill-rule:evenodd;clip-rule:evenodd;fill:#FEFEFE;"/><path d="M283.494,207.823c13.621-10.987,26.57-10.091,38.844,0    C310.064,217.911,297.115,218.754,283.494,207.823L283.494,207.823z" style="fill-rule:evenodd;clip-rule:evenodd;fill:#FFFFFF;"/><path d="M309.277,200.593c1.348,1.513,2.131,3.475,2.131,5.604    c0,4.709-3.813,8.462-8.463,8.462c-4.709,0-8.521-3.753-8.521-8.462c0-2.13,0.787-4.092,2.074-5.548    C300.816,199.693,305.074,199.693,309.277,200.593L309.277,200.593z" style="fill-rule:evenodd;clip-rule:evenodd;fill:#A9A9A9;"/><path d="M302.945,211.802c3.027,0,5.549-2.521,5.549-5.548    c0-3.083-2.521-5.552-5.549-5.552c-3.082,0-5.549,2.469-5.549,5.552C297.396,209.28,299.863,211.802,302.945,211.802    L302.945,211.802z" style="fill-rule:evenodd;clip-rule:evenodd;fill:#505050;"/><path d="M305.129,204.907c0.955,0,1.74-0.728,1.74-1.683    c0-0.952-0.785-1.68-1.74-1.68c-0.895,0-1.682,0.728-1.682,1.68C303.447,204.18,304.234,204.907,305.129,204.907L305.129,204.907z    " style="fill-rule:evenodd;clip-rule:evenodd;fill:#FEFEFE;"/><path d="M282.99,189.828c19.338-9.64,32.621-3.644,44.057,7.4    c-14.684-8.97-27.24-11.884-41.928-1.683C280.807,198.91,277.832,193.528,282.99,189.828L282.99,189.828z" style="fill-rule:evenodd;clip-rule:evenodd;fill:#767676;"/><path d="M257.822,189.828c-19.281-9.64-32.624-3.644-44.003,7.4    c14.687-8.97,27.243-11.884,41.874-1.683C260.008,198.91,262.977,193.528,257.822,189.828L257.822,189.828z" style="fill-rule:evenodd;clip-rule:evenodd;fill:#767676;"/><path d="M214.997,207.206    c0.167-5.718,3.475-9.025,9.587-10.145c16.479-1.738,33.574,0.896,35.818,7.901c5.49,20.74-18.779,34.697-34.531,25.17    C217.406,224.358,215.164,216.398,214.997,207.206L214.997,207.206z" style="fill:none;stroke:#202020;stroke-width:0.4819;stroke-miterlimit:10;"/><path d="M326.656,207.206    c-0.111-5.718-3.475-9.025-9.531-10.145c-16.535-1.738-33.574,0.896-35.871,7.901c-5.607,21.078,19,34.587,34.527,25.17    C324.299,224.358,326.486,216.398,326.656,207.206L326.656,207.206z" style="fill:none;stroke:#202020;stroke-width:0.4819;stroke-miterlimit:10;"/><path d="    M292.912,195.211c13.957-1.179,27.691-0.953,41.365-0.784c0,1.905-0.057,3.866-0.057,5.771c-6.164,1.516-0.447,8.408-7.676,8.353    c0.393-2.971-0.338-5.828-2.637-8.519c-3.361-2.691-7.623-3.365-12.219-3.365c-8.242-0.447-16.537,0.113-24.943,3.083    c-3.475,1.738-6.279,4.148-6.053,8.856C272.285,209.167,277.441,197.397,292.912,195.211L292.912,195.211z" style="fill-rule:evenodd;clip-rule:evenodd;fill:#202020;stroke:#202020;stroke-width:0.4819;stroke-miterlimit:10;"/><path d="    M248.741,195.211c-13.957-1.179-27.635-0.953-41.31-0.784c0,1.905,0,3.866,0.056,5.771c6.166,1.516,0.448,8.408,7.62,8.353    c-0.336-2.971,0.338-5.828,2.693-8.519c3.362-2.691,7.623-3.365,12.219-3.365c8.239-0.447,16.535,0.113,24.887,3.083    c3.531,1.738,6.336,4.148,6.109,8.856C269.367,209.167,264.211,197.397,248.741,195.211L248.741,195.211z" style="fill-rule:evenodd;clip-rule:evenodd;fill:#202020;stroke:#202020;stroke-width:0.4819;stroke-miterlimit:10;"/><path d="    M261.072,200.085c6.613-1.4,13.117-1.287,19.451,0.057c-0.951,0.786-1.904,1.626-2.469,2.581c-4.652-0.617-9.414-0.617-14.348,0    C262.977,201.768,262.084,200.872,261.072,200.085L261.072,200.085z" style="fill-rule:evenodd;clip-rule:evenodd;fill:#202020;stroke:#202020;stroke-width:0.4819;stroke-miterlimit:10;"/><path d="M213.933,326.377c10.313-5.439,21.187-7.791,32.791-9.586    c-1.964,6.951-5.718,12.611-9.696,17.938c14.069,17.77,28.08,35.537,42.15,53.307c9.305-17.152,18.555-34.25,27.859-51.402    c-6.613-5.1-11.826-11.547-14.742-20.01c12.051,1.01,24.664,3.25,36.1,7.063c5.213,22.645,7.957,43.889,8.518,67.936    c-5.771-9.416-11.992-18.553-21.805-25.951c-6.783,28.307-17.654,53.586-31.779,76.514c-19.396-22.871-35.26-47.145-46.021-73.318    c-9.81,5.494-16.426,14.125-24.217,24.664C213.876,371.555,213.09,348.404,213.933,326.377L213.933,326.377z" style="fill-rule:evenodd;clip-rule:evenodd;fill:#535353;"/></g></g><g id="Layer_1"/></svg>